Coordinates
version=1
nRows=25
nColumns=23
inDegrees=yes

Units are S.I. units (second, meters, Newtons, ...)
If the header above contains a line with 'inDegrees', this indicates whether rotational values are in degrees (yes) or radians (no).

endheader
time	pelvis_tilt	pelvis_list	pelvis_rotation	pelvis_tx	pelvis_ty	pelvis_tz	hip_flexion_r	hip_adduction_r	hip_rotation_r	knee_angle_r	knee_angle_r_beta	ankle_angle_r	subtalar_angle_r	mtp_angle_r	hip_flexion_l	hip_adduction_l	hip_rotation_l	knee_angle_l	knee_angle_l_beta	ankle_angle_l	subtalar_angle_l	mtp_angle_l
     22.50000000	     -2.08846535	      9.21273685	     -6.72859477	      2.37443662	      1.01244884	      1.02701547	    -18.78508570	    -11.23085448	      1.13983690	     66.94783818	      1.16846020	    -28.45919354	    -28.66550067	      0.00000000	     37.46224365	      7.92792011	     -5.26317331	     26.96565963	      0.47063955	      3.10893263	      2.22954195	      0.00000000
     22.50666667	     -1.51219772	      9.16821632	     -6.39826181	      2.37377722	      1.00919236	      1.02775453	    -17.82070412	    -10.50047049	      1.94550986	     71.60460684	      1.24973615	    -28.28758956	    -28.72174313	      0.00000000	     36.69256818	      8.03857847	     -6.07501542	     28.45743814	      0.49667599	      2.88625106	      1.49033855	      0.00000000
     22.51333333	     -0.82053197	      9.18129094	     -5.99556195	      2.37316382	      1.00576854	      1.02836509	    -16.98726916	     -9.89760742	      2.42195504	     76.06894516	      1.32765355	    -28.02160837	    -28.70120405	      0.00000000	     35.75096680	      8.23203375	     -6.96341058	     30.14489230	      0.52612762	      2.75132368	      0.39546325	      0.00000000
     22.52000000	     -0.39440270	      9.16078045	     -5.48232588	      2.37241874	      1.00176564	      1.02872017	    -15.79225168	     -9.30206666	      2.68814195	     80.46437195	      1.40436822	    -27.53730377	    -28.59577550	      0.00000000	     35.06993716	      8.40946591	     -7.68241795	     32.06936500	      0.55971601	      2.72104456	     -1.02337333	      0.00000000
     22.52666667	     -0.20592198	      9.12443732	     -4.79908175	      2.37148502	      0.99729059	      1.02875028	    -14.29912806	     -8.72779786	      2.69269478	     84.74149282	      1.47901806	    -26.93436997	    -28.45228805	      0.00000000	     34.61085123	      8.71044281	     -7.93956501	     34.16385552	      0.59627176	      2.82413453	     -2.79712913	      0.00000000
     22.53333333	      0.15256141	      9.24346770	     -4.11426014	      2.37044971	      0.99291570	      1.02859675	    -12.93527307	     -8.48171269	      2.48497936	     88.82440876	      1.55027839	    -26.18572808	    -28.32963432	      0.00000000	     33.93324138	      9.21706573	     -8.11795652	     36.39467591	      0.63520692	      3.50511163	     -4.37705032	      0.00000000
     22.54000000	     -0.02818686	      9.24639999	     -3.20602456	      2.36901010	      0.98789475	      1.02796905	    -10.85597875	     -8.20293580	      2.07382332	     92.87149850	      1.62091343	    -25.37787278	    -28.13317589	      0.00000000	     33.80841609	      9.81034386	     -7.63014842	     38.76690082	      0.67661006	      4.21114379	     -6.39595463	      0.00000000
     22.54666667	     -0.15187452	      9.37071413	     -2.34629050	      2.36735786	      0.98300213	      1.02721935	     -8.73483399	     -8.21545689	      1.63707065	     96.75009851	      1.68860777	    -24.52010546	    -27.98509599	      0.00000000	     33.57000149	     10.58048972	     -7.04109719	     41.19572241	      0.71900099	      5.53089649	     -8.09400806	      0.00000000
     22.55333333	     -0.43146308	      9.50737502	     -1.46576591	      2.36549172	      0.97809159	      1.02628836	     -6.32375710	     -8.40235629	      1.17667463	    100.47394571	      1.75360117	    -23.66371102	    -27.85249573	      0.00000000	     33.42914404	     11.39724244	     -6.34841266	     43.65278010	      0.76188474	      7.24283321	     -9.36227715	      0.00000000
     22.56000000	     -0.81439085	      9.68167451	     -0.56900424	      2.36335904	      0.97332784	      1.02520065	     -3.66804322	     -8.79191039	      0.73137355	    104.02795539	      1.81563034	    -22.86833565	    -27.74248828	      0.00000000	     33.28899113	     12.28963824	     -5.55339564	     46.02815319	      0.80334282	      9.29354063	    -10.23699554	      0.00000000
     22.56666667	     -1.33669510	      9.78107772	      0.26831364	      2.36094041	      0.96880992	      1.02405364	     -0.68202443	     -9.18147203	      0.46434900	    107.38881742	      1.87428844	    -22.07358614	    -27.61660746	      0.00000000	     33.14712314	     13.10614623	     -4.66826229	     48.22428950	      0.84167263	     11.45065912	    -10.89558911	      0.00000000
     22.57333333	     -1.93893090	      9.86344919	      1.07193562	      2.35835548	      0.96469107	      1.02288944	      2.54094623	     -9.63931564	      0.33112704	    110.50090043	      1.92860454	    -21.34895568	    -27.48713095	      0.00000000	     32.88648427	     13.89816767	     -3.70879072	     50.13203062	      0.87496899	     13.73246369	    -11.19997795	      0.00000000
     22.58000000	     -2.47025379	      9.94236782	      1.91865832	      2.35554609	      0.96106621	      1.02167604	      5.80530106	    -10.21554099	      0.20927992	    113.32962017	      1.97797501	    -20.71083145	    -27.32518621	      0.00000000	     32.33732236	     14.63999986	     -2.74546364	     51.73637192	      0.90297003	     15.98419713	    -11.20534454	      0.00000000
     22.58666667	     -3.02546495	      9.94040677	      2.69527074	      2.35263322	      0.95802577	      1.02061156	      9.24752193	    -10.68938545	      0.27447814	    115.83547561	      2.02171044	    -20.07682521	    -27.11426892	      0.00000000	     31.55953373	     15.23379253	     -1.73747375	     52.94321791	      0.92403347	     18.20161065	    -10.95252521	      0.00000000
     22.59333333	     -3.53545512	      9.84274234	      3.40160751	      2.34965776	      0.95555262	      1.01973018	     12.77391675	    -11.04529362	      0.45902425	    117.99038874	      2.05932077	    -19.41862403	    -26.82301687	      0.00000000	     30.50824595	     15.59614443	     -0.79762115	     53.80150227	      0.93901336	     20.34546884	    -10.45465430	      0.00000000
     22.60000000	     -3.95243908	      9.68814702	      4.07257218	      2.34670876	      0.95377605	      1.01899355	     16.27795699	    -11.29925003	      0.71401151	    119.74766834	      2.08999108	    -18.75123308	    -26.43371403	      0.00000000	     29.10726918	     15.79353792	      0.12520825	     54.25237203	      0.94688252	     22.33312696	     -9.74310682	      0.00000000
     22.60666667	     -4.29550645	      9.45006371	      4.65042230	      2.34390681	      0.95265904	      1.01845681	     19.76556814	    -11.41790790	      1.01827572	    121.08513751	      2.11333432	    -18.01946161	    -25.96115129	      0.00000000	     27.40218671	     15.74550145	      0.93703025	     54.30371937	      0.94777870	     24.17375584	     -8.87986513	      0.00000000
     22.61333333	     -4.54940923	      9.10738559	      5.08613778	      2.34132106	      0.95217587	      1.01818258	     23.19079633	    -11.29404675	      1.39713578	    121.99096266	      2.12914396	    -17.20478848	    -25.41526724	      0.00000000	     25.42222352	     15.38812806	      1.54094759	     54.00586682	      0.94258019	     25.81820378	     -7.71164641	      0.00000000
     22.62000000	     -4.54355769	      8.66416512	      5.48718405	      2.33924581	      0.95291518	      1.01787778	     26.20337456	    -11.06079254	      1.59793843	    122.31838640	      2.13485858	    -16.73133698	    -25.27299157	      0.00000000	     22.84897677	     14.89636065	      2.33650844	     53.10464006	      0.92685082	     26.53288660	     -7.37898595	      0.00000000
     22.62666667	     -4.84940456	      8.29944127	      5.67444724	      2.33709666	      0.95317388	      1.01765391	     29.67048947	    -10.76047954	      2.13709317	    122.48414458	      2.13775160	    -15.28424027	    -24.14405084	      0.00000000	     20.64919280	     14.35683323	      2.74893214	     52.17318943	      0.91059394	     27.93983331	     -6.02502869	      0.00000000
     22.63333333	     -4.91032730	      7.73486478	      5.71210364	      2.33559738	      0.95456087	      1.01766037	     32.68823247	    -10.12844102	      2.47235113	    122.06799527	      2.13048843	    -14.17605188	    -23.42023005	      0.00000000	     17.97815571	     13.41762767	      2.96782499	     50.75550999	      0.88585076	     28.46695346	     -4.83156053	      0.00000000
     22.64000000	     -4.97561792	      7.08799752	      5.64471146	      2.33449380	      0.95639917	      1.01761029	     35.56353789	     -9.32024537	      2.74566439	    121.24481729	      2.11612126	    -13.04734183	    -22.91290369	      0.00000000	     15.19419319	     12.42065371	      3.24379383	     49.02017531	      0.85556346	     28.71322031	     -3.96345639	      0.00000000
     22.64666667	     -5.35290988	      6.38617336	      5.66263092	      2.33357334	      0.95827706	      1.01720864	     38.61586252	     -8.51780095	      2.87307663	    120.05482043	      2.09535190	    -12.18414033	    -22.68736351	      0.00000000	     12.68604809	     11.53526454	      3.82258768	     47.08828323	      0.82184558	     28.75443354	     -3.34203299	      0.00000000
     22.65333333	     -4.97695406	      5.55369498	      5.15813217	      2.33367491	      0.96155860	      1.01758204	     40.59135927	     -7.16597235	      3.01963591	    118.39625531	      2.06640448	    -10.68027996	    -21.87497664	      0.00000000	      9.23893647	     10.07341664	      3.41418624	     44.74859473	      0.78101031	     28.60135323	     -1.93189222	      0.00000000
     22.66000000	     -4.86114504	      4.57102941	      4.85810763	      2.33405437	      0.96490593	      1.01750828	     42.59292169	     -5.85237625	      2.83213613	    116.36832659	      2.03101044	     -9.57062861	    -21.61076920	      0.00000000	      6.08811790	      8.58733152	      3.18212342	     42.35711711	      0.73927116	     28.27452208	     -0.07596177	      0.00000000
